<svg width="24px" height="20px" viewBox="0 0 24 20" version="1.1" xmlns="http://www.w3.org/2000/svg" xmlns:xlink="http://www.w3.org/1999/xlink"><g id="Symbols" stroke="none" stroke-width="1" fill="none" fill-rule="evenodd"><g id="login/twitter" transform="translate(-20.000000, -22.000000)" fill="#FFFFFF" fill-rule="nonzero"><path d="M27.5390156,42 C36.5954382,42 41.5510204,34.3031496 41.5510204,27.6397638 C41.5510204,27.4232283 41.5510204,27.2066929 41.5414166,26.9901575 C42.5018007,26.2814961 43.3373349,25.3858268 44,24.3720472 C43.1164466,24.7755906 42.1656663,25.0413386 41.1668667,25.1692913 C42.1848739,24.5492126 42.9627851,23.5551181 43.3373349,22.3740157 C42.3865546,22.9547244 41.3301321,23.3681102 40.2064826,23.5944882 C39.3037215,22.6102362 38.0264106,22 36.6146459,22 C33.8967587,22 31.6878752,24.2637795 31.6878752,27.0492126 C31.6878752,27.4429134 31.7358944,27.8267717 31.8127251,28.2007874 C27.7214886,27.9940945 24.0912365,25.976378 21.6614646,22.9251969 C21.2388956,23.6732283 20.9987995,24.5393701 20.9987995,25.4645669 C20.9987995,27.2165354 21.8727491,28.761811 23.1884754,29.6673228 C22.3817527,29.6377953 21.6230492,29.4114173 20.9603842,29.0374016 C20.9603842,29.0570866 20.9603842,29.0767717 20.9603842,29.1062992 C20.9603842,31.5472441 22.6602641,33.5944882 24.907563,34.0570866 C24.4945978,34.1751969 24.062425,34.234252 23.6110444,34.234252 C23.2941176,34.234252 22.9867947,34.2047244 22.6890756,34.1456693 C23.3133253,36.1535433 25.1380552,37.6102362 27.2893157,37.6496063 C25.5990396,39.007874 23.4765906,39.8149606 21.1716687,39.8149606 C20.7779112,39.8149606 20.3841537,39.7952756 20,39.746063 C22.1704682,41.1633858 24.7635054,42 27.5390156,42" id="Path"></path></g></g></svg>